<svg id="a" xmlns="http://www.w3.org/2000/svg" viewBox="0 0 24 24"><path d="M14,20.75v-2.05c1.5-.43,2.71-1.27,3.62-2.5s1.38-2.63,1.38-4.2-.46-2.97-1.38-4.2c-.92-1.23-2.12-2.07-3.62-2.5V3.25c2.07,.47,3.75,1.51,5.05,3.14,1.3,1.63,1.95,3.5,1.95,5.61s-.65,3.99-1.95,5.61c-1.3,1.63-2.98,2.67-5.05,3.14ZM3,15.02v-6H7l5-5V20.02l-5-5H3Zm11,1V7.97c.75,.35,1.35,.89,1.81,1.62,.46,.73,.69,1.54,.69,2.43s-.23,1.68-.69,2.4c-.46,.72-1.06,1.25-1.81,1.6Zm-4-7.15l-2.15,2.15h-2.85v2h2.85l2.15,2.15v-6.3Z" fill="#fff"/></svg>