<svg xmlns="http://www.w3.org/2000/svg" viewBox="0 0 24 24"><path d="M19.8,22.63l-3.02-3.02c-.42,.27-.86,.5-1.32,.69-.47,.19-.95,.35-1.45,.46v-2.05c.23-.08,.46-.17,.69-.25,.22-.08,.44-.18,.64-.3l-3.32-3.32v5.2l-5-5H3v-6h3.2L1.4,4.22l1.4-1.4L21.2,21.23l-1.4,1.4Zm-.2-5.8l-1.45-1.45c.28-.52,.5-1.06,.64-1.62,.14-.57,.21-1.15,.21-1.75,0-1.57-.46-2.97-1.38-4.2-.92-1.23-2.12-2.07-3.62-2.5V3.25c2.07,.47,3.75,1.51,5.05,3.14,1.3,1.63,1.95,3.5,1.95,5.61,0,.88-.12,1.73-.36,2.55-.24,.82-.59,1.58-1.04,2.27Zm-3.35-3.35l-2.25-2.25v-3.25c.78,.37,1.4,.92,1.84,1.65,.44,.73,.66,1.53,.66,2.4,0,.25-.02,.5-.06,.74-.04,.24-.1,.48-.19,.71Zm-4.25-4.25l-2.6-2.6,2.6-2.6v5.2Zm-2,5.95v-2.35l-1.8-1.8h-3.2v2h2.85l2.15,2.15Z" fill="#fff"/></svg>